<svg width="22" height="18" viewBox="0 0 22 18" fill="none" xmlns="http://www.w3.org/2000/svg">
<path d="M16.0092 10.2459C15.9281 10.1176 15.8404 9.99607 15.7459 9.87451C15.6109 9.68536 15.4488 9.50309 15.2325 9.28704C15.0367 9.09116 14.834 8.91562 14.618 8.76024C13.632 8.00397 12.43 7.60547 11.1738 7.60547C9.90423 7.60547 8.70222 8.01741 7.72297 8.76024C7.31776 9.06408 6.95308 9.42878 6.6356 9.84072C6.53438 9.96901 6.43972 10.104 6.34523 10.2459C5.75775 11.1576 5.43359 12.2449 5.43359 13.3458V16.0469C5.43359 16.6075 5.88605 17.0599 6.44663 17.0599H15.9012C16.4618 17.0599 16.9143 16.6075 16.9143 16.0469V13.3456C16.9141 12.2313 16.5899 11.144 16.0092 10.2459L16.0092 10.2459Z" fill="#0476ED"/>
<path d="M14.2126 3.55456C14.2126 5.2294 12.8485 6.59349 11.1737 6.59349C9.4989 6.59349 8.13477 5.22936 8.13477 3.55456C8.13477 1.87299 9.4989 0.515625 11.1737 0.515625C12.8485 0.515625 14.2126 1.87299 14.2126 3.55456Z" fill="#0476ED"/>
<path d="M20.6283 3.55456C20.6283 5.2294 19.2642 6.59349 17.5894 6.59349C15.9146 6.59349 14.5503 5.22936 14.5503 3.55456C14.5503 1.87299 15.9144 0.515625 17.5892 0.515625C19.264 0.515625 20.6283 1.87299 20.6283 3.55456Z" fill="#0476ED"/>
<path d="M21.9789 11.9949V14.6962C21.9789 15.2568 21.5265 15.7092 20.9659 15.7092H17.927V13.3456C17.927 12.0558 17.5488 10.7591 16.8667 9.70554C16.7655 9.55018 16.6574 9.40171 16.5696 9.28687C16.4075 9.0572 16.2183 8.84114 15.9483 8.5711C15.793 8.41574 15.6376 8.274 15.4824 8.14571C16.1171 7.79447 16.8398 7.60547 17.5894 7.60547C18.7576 7.60547 19.8584 8.05792 20.6892 8.88181C21.5264 9.72588 21.979 10.8267 21.979 11.9949L21.9789 11.9949Z" fill="#0476ED"/>
<path d="M6.87156 8.14583C6.49341 8.45655 6.14218 8.82109 5.83836 9.21282C5.72352 9.36145 5.60868 9.51665 5.49401 9.69906C4.79152 10.7864 4.42013 12.0493 4.42013 13.3458V15.7095H1.3812C0.820619 15.7095 0.368164 15.257 0.368164 14.6964V11.9951C0.368164 9.57745 2.34011 7.60547 4.75782 7.60547C5.50754 7.60547 6.23003 7.79462 6.87167 8.14571L6.87156 8.14583Z" fill="#0476ED"/>
<path d="M7.79727 3.55456C7.79727 5.2294 6.43314 6.59349 4.75833 6.59349C3.08353 6.59349 1.71924 5.22936 1.71924 3.55456C1.71924 1.87299 3.08337 0.515625 4.75817 0.515625C6.43297 0.515625 7.79727 1.87299 7.79727 3.55456Z" fill="#0476ED"/>
</svg>
