<svg width="44" height="34" viewBox="0 0 44 34" fill="none" xmlns="http://www.w3.org/2000/svg">
<path d="M37.1945 3.31217C34.4324 2.04461 31.4713 1.11148 28.3747 0.576265C28.3179 0.566501 28.2618 0.592133 28.2325 0.643397C27.8517 1.32081 27.43 2.2045 27.1346 2.89962C23.8043 2.40101 20.4904 2.40101 17.2285 2.89962C16.9331 2.18925 16.4961 1.32081 16.1135 0.643397C16.0842 0.593964 16.0281 0.567721 15.9713 0.576265C12.8765 1.10965 9.91545 2.04339 7.15209 3.31217C7.12768 3.32254 7.10754 3.33963 7.09411 3.36221C1.47645 11.7542 -0.0626882 19.94 0.692233 28.0244C0.695895 28.0641 0.717865 28.1019 0.748989 28.1263C4.45524 30.8476 8.04493 32.5002 11.5687 33.5957C11.6249 33.6128 11.6847 33.592 11.7207 33.5456C12.5543 32.4074 13.297 31.207 13.9342 29.9449C13.9714 29.8711 13.936 29.7838 13.8591 29.7545C12.6806 29.3072 11.5583 28.7622 10.4787 28.1434C10.3933 28.0933 10.3866 27.9713 10.4653 27.9127C10.6923 27.7424 10.9194 27.5655 11.1366 27.3866C11.1757 27.3543 11.2306 27.347 11.2764 27.3677C18.3679 30.6053 26.0446 30.6053 33.0525 27.3677C33.0989 27.3457 33.1532 27.3525 33.1941 27.3848C33.4114 27.5636 33.6384 27.7424 33.8673 27.9127C33.946 27.9713 33.9405 28.0933 33.8551 28.1434C32.7761 28.7744 31.6538 29.3072 30.4735 29.7527C30.3966 29.782 30.3624 29.8711 30.4002 29.9449C31.0508 31.2052 31.7935 32.4056 32.6119 33.5438C32.6461 33.592 32.7077 33.6128 32.7639 33.5957C36.3041 32.5002 39.8944 30.8476 43.6007 28.1263C43.633 28.1019 43.6538 28.0659 43.6568 28.0262C44.5607 18.6797 42.1439 10.5611 37.2507 3.36343C37.2385 3.33963 37.2183 3.32254 37.1945 3.31217ZM14.993 23.1018C12.8582 23.1018 11.0988 21.1422 11.0988 18.7346C11.0988 16.3277 12.8241 14.3675 14.993 14.3675C17.1791 14.3675 18.9214 16.3448 18.8872 18.7346C18.8872 21.1422 17.162 23.1018 14.993 23.1018ZM29.3908 23.1018C27.2561 23.1018 25.4966 21.1422 25.4966 18.7346C25.4966 16.3277 27.2219 14.3675 29.3908 14.3675C31.5769 14.3675 33.3192 16.3448 33.285 18.7346C33.285 21.1422 31.5769 23.1018 29.3908 23.1018Z" fill="#0476ED"/>
</svg>
