<svg width="20" height="21" viewBox="0 0 20 21" fill="none" xmlns="http://www.w3.org/2000/svg">
<path d="M10.8694 2.36954C10.8694 3.02453 10.3385 3.55548 9.6835 3.55548C9.02851 3.55548 8.49756 3.02453 8.49756 2.36954C8.49756 1.71455 9.02851 1.18359 9.6835 1.18359C10.3385 1.18359 10.8694 1.71455 10.8694 2.36954Z" fill="#0879ED"/>
<path d="M5.53351 18.3852C5.53351 19.0402 5.00255 19.5711 4.34757 19.5711C3.69258 19.5711 3.16162 19.0402 3.16162 18.3852C3.16162 17.7302 3.69258 17.1992 4.34757 17.1992C5.00255 17.1992 5.53351 17.7302 5.53351 18.3852Z" fill="#0879ED"/>
<path d="M19.1922 17.4215L17.9351 18.6786L19.1922 19.9357C19.3421 20.0856 19.4006 20.3041 19.3458 20.5088C19.291 20.7135 19.131 20.8735 18.9263 20.9283C18.7216 20.9832 18.503 20.9246 18.3532 20.7748L17.0961 19.5177L15.839 20.7748C15.7276 20.8868 15.576 20.9498 15.418 20.9497C15.2604 20.9498 15.1093 20.8872 14.9978 20.7756C14.8865 20.6641 14.8242 20.5129 14.8245 20.3553C14.8249 20.1976 14.888 20.0467 14.9999 19.9357L16.257 18.6786L14.9999 17.4215C14.8501 17.2717 14.7915 17.0531 14.8464 16.8484C14.9012 16.6437 15.0612 16.4838 15.2659 16.4289C15.4706 16.374 15.6892 16.4326 15.839 16.5825L17.0961 17.8396L18.3532 16.5825C18.5031 16.4326 18.7216 16.374 18.9263 16.4289C19.131 16.4837 19.291 16.6437 19.3458 16.8484C19.4007 17.0531 19.3421 17.2717 19.1922 17.4215ZM14.7242 2.66837H18.4304L18.4867 2.68616L18.5401 2.70988C18.5574 2.71581 18.5734 2.72483 18.5875 2.73657C18.607 2.74558 18.6251 2.75757 18.6409 2.77214L18.6824 2.80476L18.7269 2.85219C18.7394 2.86467 18.7504 2.87863 18.7595 2.8937C18.7721 2.90939 18.783 2.92619 18.7921 2.94411L18.8188 2.99154C18.8269 3.00884 18.834 3.02663 18.8395 3.04491L18.8573 3.10124V3.15461C18.8588 3.17536 18.8588 3.19612 18.8573 3.21687V3.24059V7.11563C18.8573 7.32749 18.7443 7.52318 18.5608 7.62915C18.3774 7.73503 18.1513 7.73503 17.9679 7.62915C17.7844 7.52316 17.6714 7.32748 17.6714 7.11563V4.87419L8.6522 15.5063C8.50766 15.6366 8.3084 15.6877 8.11903 15.6431C7.92965 15.5984 7.77413 15.4638 7.7031 15.2827C7.63194 15.1014 7.6543 14.897 7.76276 14.7354L17.0011 3.85444H14.7241C14.5122 3.85444 14.3165 3.74141 14.2106 3.55795C14.1047 3.3745 14.1047 3.14844 14.2106 2.96498C14.3166 2.78153 14.5124 2.66837 14.7242 2.66837ZM9.68382 0C10.3129 0 10.9162 0.249912 11.3609 0.694773C11.8058 1.13949 12.0557 1.74286 12.0557 2.37189C12.0557 3.00091 11.8058 3.60429 11.3609 4.049C10.9162 4.49384 10.3128 4.74378 9.68382 4.74378C9.05479 4.74378 8.45142 4.49386 8.00671 4.049C7.56187 3.60429 7.31193 3.00091 7.31193 2.37189C7.31193 1.74286 7.56184 1.13949 8.00671 0.694773C8.45142 0.249934 9.05479 0 9.68382 0ZM6.71896 18.3821C6.71896 19.0112 6.46905 19.6145 6.02419 20.0592C5.57947 20.5041 4.9761 20.754 4.34707 20.754C3.71805 20.754 3.11467 20.5041 2.66996 20.0592C2.22512 19.6145 1.97518 19.0112 1.97518 18.3821C1.97518 17.7531 2.2251 17.1497 2.66996 16.705C3.11467 16.2602 3.71805 16.0102 4.34707 16.0102C4.9761 16.0102 5.57947 16.2602 6.02419 16.705C6.46903 17.1497 6.71896 17.7531 6.71896 18.3821ZM0.175394 7.34115C0.0255447 7.1913 -0.0330091 6.97278 0.0218384 6.76807C0.076686 6.56336 0.236669 6.4034 0.441379 6.34853C0.646089 6.29366 0.864617 6.35224 1.01446 6.50209L2.27156 7.75919L3.52866 6.50209C3.67851 6.35224 3.89703 6.29369 4.10174 6.34853C4.30645 6.40338 4.46641 6.56336 4.52128 6.76807C4.57615 6.97278 4.51757 7.19131 4.36772 7.34115L3.11062 8.59825L4.36772 9.85535C4.51757 10.0052 4.57613 10.2237 4.52128 10.4284C4.46643 10.6331 4.30645 10.7931 4.10174 10.848C3.89703 10.9028 3.6785 10.8443 3.52866 10.6944L2.27156 9.43732L1.01446 10.6944C0.903029 10.8065 0.75145 10.8695 0.593464 10.8693C0.435831 10.8695 0.284748 10.8068 0.173323 10.6953C0.0620184 10.5837 -0.000368378 10.4325 1.63656e-06 10.2749C0.000371651 10.1173 0.0634988 9.9663 0.175423 9.85535L1.43252 8.59825L0.175394 7.34115Z" fill="#0879ED"/>
</svg>
