<svg width="23" height="23" viewBox="0 0 23 23" fill="none" xmlns="http://www.w3.org/2000/svg">
<path d="M22.9934 11.4953C22.9929 11.2621 22.8718 11.0457 22.6733 10.9233L20.3365 9.48279L22.6757 8.0268C22.873 7.90402 22.9931 7.68823 22.9934 7.45592C22.9938 7.22356 22.8744 7.00741 22.6774 6.88405L11.8544 0.102797C11.6356 -0.0342655 11.3578 -0.0342655 11.139 0.102797L0.31598 6.88405C0.119099 7.00741 -0.000313744 7.22356 6.19152e-07 7.45592C0.000359891 7.68828 0.120402 7.90407 0.317687 8.0268L2.64092 9.47278L0.316654 10.9255C0.119503 11.0488 -0.000179017 11.2649 4.55281e-05 11.4974C0.000270073 11.7299 0.120357 11.9458 0.317731 12.0687L2.64096 13.5147L0.316654 14.9673C0.119818 15.0904 0.000180255 15.3061 4.55281e-05 15.5382C-8.91988e-05 15.7704 0.119324 15.9862 0.316025 16.1094L11.1391 22.8907C11.2485 22.9592 11.3726 22.9935 11.4967 22.9935C11.6209 22.9935 11.745 22.9592 11.8544 22.8907L22.6774 16.1094C22.8748 15.9858 22.9943 15.769 22.9934 15.5361C22.9926 15.3033 22.8715 15.0873 22.6733 14.9651L20.3365 13.5246L22.6757 12.0687C22.8737 11.9454 22.9939 11.7285 22.9934 11.4953ZM21.0436 15.5433L11.4967 21.5249L1.94357 15.5393L3.91458 14.3074L11.1408 18.805C11.2497 18.8729 11.3732 18.9068 11.4967 18.9068C11.6202 18.9068 11.7437 18.8729 11.8527 18.805L19.059 14.3198L21.0436 15.5433ZM11.4967 17.4397L1.94658 11.4956L3.91458 10.2656L11.1408 14.7632C11.2497 14.831 11.3732 14.865 11.4967 14.865C11.6202 14.865 11.7437 14.831 11.8527 14.7632L19.059 10.278L21.0406 11.4995C20.9858 11.5336 11.7496 17.2823 11.4967 17.4397Z" fill="#0878ED"/>
</svg>
